<svg width="91" height="85" viewBox="0 0 91 85" fill="none" xmlns="http://www.w3.org/2000/svg">
<g filter="url(#filter0_d_13_76)">
<path d="M23.8862 42.96L41.9223 40.6176" stroke="#F0F1F5" stroke-width="8" stroke-linecap="round" stroke-linejoin="round"/>
<path d="M48.9103 23.8153L41.9224 40.6177" stroke="#F0F1F5" stroke-width="8" stroke-linecap="round" stroke-linejoin="round"/>
<path d="M60.4587 45.7964L75.4554 43.6033L77.6484 58.6001" stroke="#F0F1F5" stroke-width="8" stroke-linecap="round" stroke-linejoin="round"/>
<path d="M57.7464 11.5371C52.4582 7.59487 46.1196 5.3096 39.5324 4.97038C32.9452 4.63116 26.4054 6.25324 20.7402 9.63142C15.075 13.0096 10.5391 17.9921 7.70608 23.9487C4.87309 29.9052 3.87037 36.5682 4.82477 43.0947C5.77917 49.6212 8.6478 55.718 13.0678 60.6139C17.4878 65.5099 23.2605 68.9849 29.6558 70.5994C36.0511 72.214 42.7815 71.8955 48.9958 69.6842C55.21 67.473 60.6288 63.4684 64.5668 58.177L75.4554 43.6032" stroke="#F0F1F5" stroke-width="8" stroke-linecap="round" stroke-linejoin="round"/>
</g>
<defs>
<filter id="filter0_d_13_76" x="0.473633" y="0.92627" width="90.1753" height="83.6875" filterUnits="userSpaceOnUse" color-interpolation-filters="sRGB">
<feFlood flood-opacity="0" result="BackgroundImageFix"/>
<feColorMatrix in="SourceAlpha" type="matrix" values="0 0 0 0 0 0 0 0 0 0 0 0 0 0 0 0 0 0 127 0" result="hardAlpha"/>
<feOffset dx="5" dy="5"/>
<feGaussianBlur stdDeviation="2"/>
<feComposite in2="hardAlpha" operator="out"/>
<feColorMatrix type="matrix" values="0 0 0 0 0 0 0 0 0 0 0 0 0 0 0 0 0 0 0.25 0"/>
<feBlend mode="normal" in2="BackgroundImageFix" result="effect1_dropShadow_13_76"/>
<feBlend mode="normal" in="SourceGraphic" in2="effect1_dropShadow_13_76" result="shape"/>
</filter>
</defs>
</svg>
